<svg width="434" height="406" viewBox="0 0 434 406" fill="none" xmlns="http://www.w3.org/2000/svg">
<path d="M89.9587 57.1667C89.9587 63.8684 87.1034 70.5401 81.6138 75.6405C76.0871 80.7756 68.3702 83.8333 60.1134 83.8333C51.8566 83.8333 44.1397 80.7756 38.6129 75.6405C33.1233 70.5401 30.268 63.8684 30.268 57.1667C30.268 50.4649 33.1233 43.7932 38.6129 38.6928C44.1397 33.5577 51.8566 30.5 60.1134 30.5C68.3702 30.5 76.0871 33.5577 81.6138 38.6928C87.1034 43.7932 89.9587 50.4649 89.9587 57.1667Z" fill="url(#paint0_linear_1_4)" stroke="#007127" stroke-width="30"/>
<path d="M104.959 57.1667C104.959 68.2174 100.234 78.8154 91.8238 86.6295C83.4137 94.4435 72.0071 98.8333 60.1134 98.8333M104.959 57.1667C104.959 48.9258 102.329 40.87 97.4009 34.0179C92.4733 27.1659 85.4694 21.8253 77.275 18.6717C69.0805 15.518 60.0636 14.6929 51.3645 16.3006C42.6653 17.9083 34.6747 21.8767 28.4029 27.7039C22.1312 33.5311 17.8601 40.9554 16.1297 49.0379C14.3993 57.1204 15.2874 65.4982 18.6817 73.1118C22.0759 80.7254 27.8239 87.2328 35.1986 91.8112C42.5734 96.3896 51.2438 98.8333 60.1134 98.8333M104.959 57.1667H172.227M60.1134 98.8333V161.333" stroke="#007127" stroke-width="30" stroke-linecap="round" stroke-linejoin="round"/>
<path d="M81.6139 330.359C87.1035 335.46 89.9588 342.132 89.9588 348.833C89.9588 355.535 87.1035 362.207 81.6139 367.307C76.0871 372.442 68.3702 375.5 60.1134 375.5C51.8566 375.5 44.1397 372.442 38.6129 367.307C33.1233 362.207 30.268 355.535 30.268 348.833C30.268 342.132 33.1233 335.46 38.6129 330.359C44.1397 325.224 51.8566 322.167 60.1134 322.167C68.3702 322.167 76.0871 325.224 81.6139 330.359Z" fill="url(#paint1_linear_1_4)" stroke="#007127" stroke-width="30"/>
<path d="M104.959 348.833C104.959 337.783 100.234 327.185 91.8238 319.371C83.4137 311.557 72.0071 307.167 60.1134 307.167M104.959 348.833C104.959 357.074 102.329 365.13 97.4009 371.982C92.4733 378.834 85.4694 384.175 77.275 387.328C69.0805 390.482 60.0636 391.307 51.3645 389.699C42.6653 388.092 34.6747 384.123 28.4029 378.296C22.1312 372.469 17.8601 365.045 16.1297 356.962C14.3993 348.88 15.2874 340.502 18.6817 332.888C22.0759 325.275 27.8239 318.767 35.1986 314.189C42.5734 309.61 51.2438 307.167 60.1134 307.167M104.959 348.833H172.227M60.1134 307.167V244.667" stroke="#007127" stroke-width="30" stroke-linecap="round" stroke-linejoin="round"/>
<path d="M344.186 348.833C344.186 342.132 347.041 335.46 352.53 330.359C358.057 325.224 365.774 322.167 374.031 322.167C382.288 322.167 390.005 325.224 395.531 330.359C401.021 335.46 403.876 342.132 403.876 348.833C403.876 355.535 401.021 362.207 395.531 367.307C390.005 372.442 382.288 375.5 374.031 375.5C365.774 375.5 358.057 372.442 352.53 367.307C347.041 362.207 344.186 355.535 344.186 348.833Z" fill="url(#paint2_linear_1_4)" stroke="#007127" stroke-width="30"/>
<path d="M329.186 348.833C329.186 337.783 333.91 327.185 342.32 319.371C350.731 311.557 362.137 307.167 374.031 307.167M329.186 348.833C329.186 357.074 331.816 365.13 336.743 371.982C341.671 378.834 348.675 384.175 356.869 387.328C365.064 390.482 374.081 391.307 382.78 389.699C391.479 388.092 399.47 384.123 405.741 378.296C412.013 372.469 416.284 365.045 418.015 356.962C419.745 348.88 418.857 340.502 415.463 332.888C412.068 325.275 406.32 318.767 398.946 314.189C391.571 309.61 382.901 307.167 374.031 307.167M329.186 348.833H261.918M374.031 307.167V244.667" stroke="#007127" stroke-width="30" stroke-linecap="round" stroke-linejoin="round"/>
<path d="M352.53 75.6405C347.041 70.5401 344.186 63.8684 344.186 57.1667C344.186 50.4649 347.041 43.7933 352.53 38.6928C358.057 33.5577 365.774 30.5 374.031 30.5C382.288 30.5 390.005 33.5577 395.531 38.6928C401.021 43.7933 403.876 50.4649 403.876 57.1667C403.876 63.8684 401.021 70.5401 395.531 75.6405C390.005 80.7756 382.288 83.8333 374.031 83.8333C365.774 83.8333 358.057 80.7756 352.53 75.6405Z" fill="url(#paint3_linear_1_4)" stroke="#007127" stroke-width="30"/>
<path d="M329.186 57.1667C329.186 68.2174 333.91 78.8154 342.32 86.6295C350.731 94.4435 362.137 98.8333 374.031 98.8333M329.186 57.1667C329.186 48.9258 331.816 40.87 336.743 34.0179C341.671 27.1659 348.675 21.8253 356.869 18.6717C365.064 15.518 374.081 14.6929 382.78 16.3006C391.479 17.9083 399.47 21.8767 405.741 27.7039C412.013 33.5311 416.284 40.9554 418.015 49.0379C419.745 57.1204 418.857 65.4982 415.463 73.1118C412.068 80.7254 406.32 87.2328 398.946 91.8112C391.571 96.3896 382.901 98.8333 374.031 98.8333M329.186 57.1667H261.918M374.031 98.8333V161.333M138.593 203H295.552M217.072 275.917V130.083" stroke="#007127" stroke-width="30" stroke-linecap="round" stroke-linejoin="round"/>
<defs>
<linearGradient id="paint0_linear_1_4" x1="60.1134" y1="15.5" x2="60.1134" y2="98.8333" gradientUnits="userSpaceOnUse">
<stop offset="0.0139777" stop-color="#FF6C6E"/>
<stop offset="0.263978" stop-color="#D8FF6C"/>
<stop offset="1" stop-color="#005E21"/>
</linearGradient>
<linearGradient id="paint1_linear_1_4" x1="60.1134" y1="307.167" x2="60.1134" y2="390.5" gradientUnits="userSpaceOnUse">
<stop offset="0.0139777" stop-color="#FF6C6E"/>
<stop offset="0.263978" stop-color="#D8FF6C"/>
<stop offset="1" stop-color="#005E21"/>
</linearGradient>
<linearGradient id="paint2_linear_1_4" x1="374.031" y1="307.167" x2="374.031" y2="390.5" gradientUnits="userSpaceOnUse">
<stop offset="0.0139777" stop-color="#FF6C6E"/>
<stop offset="0.263978" stop-color="#D8FF6C"/>
<stop offset="1" stop-color="#005E21"/>
</linearGradient>
<linearGradient id="paint3_linear_1_4" x1="374.031" y1="15.5" x2="374.031" y2="98.8333" gradientUnits="userSpaceOnUse">
<stop offset="0.0139777" stop-color="#FF6C6E"/>
<stop offset="0.263978" stop-color="#D8FF6C"/>
<stop offset="1" stop-color="#005E21"/>
</linearGradient>
</defs>
</svg>
