<svg width="2617" height="500" viewBox="0 0 2617 500" fill="none" xmlns="http://www.w3.org/2000/svg">
<path d="M141.959 104.167C141.959 110.868 139.103 117.54 133.614 122.641C128.087 127.776 120.37 130.833 112.113 130.833C103.857 130.833 96.1397 127.776 90.613 122.641C85.1234 117.54 82.2681 110.868 82.2681 104.167C82.2681 97.4649 85.1234 90.7932 90.613 85.6928C96.1397 80.5577 103.857 77.5 112.113 77.5C120.37 77.5 128.087 80.5577 133.614 85.6928C139.103 90.7932 141.959 97.4649 141.959 104.167Z" fill="url(#paint0_linear_3_15)" stroke="#007127" stroke-width="30"/>
<path d="M156.959 104.167C156.959 115.217 152.234 125.815 143.824 133.629C135.414 141.443 124.007 145.833 112.113 145.833M156.959 104.167C156.959 95.9258 154.329 87.87 149.401 81.0179C144.473 74.1659 137.469 68.8253 129.275 65.6717C121.081 62.518 112.064 61.6929 103.365 63.3006C94.6654 64.9083 86.6747 68.8767 80.403 74.7039C74.1312 80.5311 69.8601 87.9554 68.1298 96.0379C66.3994 104.12 67.2875 112.498 70.6817 120.112C74.076 127.725 79.8239 134.233 87.1987 138.811C94.5735 143.39 103.244 145.833 112.113 145.833M156.959 104.167H224.227M112.113 145.833V208.333" stroke="#007127" stroke-width="30" stroke-linecap="round" stroke-linejoin="round"/>
<path d="M133.614 377.359C139.103 382.46 141.959 389.132 141.959 395.833C141.959 402.535 139.103 409.207 133.614 414.307C128.087 419.442 120.37 422.5 112.113 422.5C103.857 422.5 96.1398 419.442 90.613 414.307C85.1234 409.207 82.2681 402.535 82.2681 395.833C82.2681 389.132 85.1234 382.46 90.613 377.359C96.1398 372.224 103.857 369.167 112.113 369.167C120.37 369.167 128.087 372.224 133.614 377.359Z" fill="url(#paint1_linear_3_15)" stroke="#007127" stroke-width="30"/>
<path d="M156.959 395.833C156.959 384.783 152.234 374.185 143.824 366.371C135.414 358.557 124.007 354.167 112.113 354.167M156.959 395.833C156.959 404.074 154.329 412.13 149.401 418.982C144.473 425.834 137.469 431.175 129.275 434.328C121.081 437.482 112.064 438.307 103.365 436.699C94.6654 435.092 86.6747 431.123 80.403 425.296C74.1312 419.469 69.8601 412.045 68.1298 403.962C66.3994 395.88 67.2875 387.502 70.6817 379.888C74.076 372.275 79.8239 365.767 87.1987 361.189C94.5735 356.61 103.244 354.167 112.113 354.167M156.959 395.833H224.227M112.113 354.167V291.667" stroke="#007127" stroke-width="30" stroke-linecap="round" stroke-linejoin="round"/>
<path d="M396.186 395.833C396.186 389.132 399.041 382.46 404.531 377.359C410.057 372.224 417.774 369.167 426.031 369.167C434.288 369.167 442.005 372.224 447.531 377.359C453.021 382.46 455.876 389.132 455.876 395.833C455.876 402.535 453.021 409.207 447.531 414.307C442.005 419.442 434.288 422.5 426.031 422.5C417.774 422.5 410.057 419.442 404.531 414.307C399.041 409.207 396.186 402.535 396.186 395.833Z" fill="url(#paint2_linear_3_15)" stroke="#007127" stroke-width="30"/>
<path d="M381.186 395.833C381.186 384.783 385.91 374.185 394.321 366.371C402.731 358.557 414.137 354.167 426.031 354.167M381.186 395.833C381.186 404.074 383.816 412.13 388.743 418.982C393.671 425.834 400.675 431.175 408.869 434.328C417.064 437.482 426.081 438.307 434.78 436.699C443.479 435.092 451.47 431.123 457.741 425.296C464.013 419.469 468.284 412.045 470.015 403.962C471.745 395.88 470.857 387.502 467.463 379.888C464.068 372.275 458.321 365.767 450.946 361.189C443.571 356.61 434.901 354.167 426.031 354.167M381.186 395.833H313.918M426.031 354.167V291.667" stroke="#007127" stroke-width="30" stroke-linecap="round" stroke-linejoin="round"/>
<path d="M404.531 122.641C399.041 117.54 396.186 110.868 396.186 104.167C396.186 97.4649 399.041 90.7933 404.531 85.6928C410.057 80.5577 417.774 77.5 426.031 77.5C434.288 77.5 442.005 80.5577 447.531 85.6928C453.021 90.7933 455.876 97.4649 455.876 104.167C455.876 110.868 453.021 117.54 447.531 122.641C442.005 127.776 434.288 130.833 426.031 130.833C417.774 130.833 410.057 127.776 404.531 122.641Z" fill="url(#paint3_linear_3_15)" stroke="#007127" stroke-width="30"/>
<path d="M381.186 104.167C381.186 115.217 385.91 125.815 394.32 133.629C402.731 141.443 414.137 145.833 426.031 145.833M381.186 104.167C381.186 95.9258 383.816 87.87 388.743 81.0179C393.671 74.1659 400.675 68.8253 408.869 65.6717C417.064 62.518 426.081 61.6929 434.78 63.3006C443.479 64.9083 451.47 68.8767 457.741 74.7039C464.013 80.5311 468.284 87.9554 470.015 96.0379C471.745 104.12 470.857 112.498 467.463 120.112C464.068 127.725 458.32 134.233 450.946 138.811C443.571 143.39 434.901 145.833 426.031 145.833M381.186 104.167H313.918M426.031 145.833V208.333M190.593 250H347.552M269.072 322.917V177.083" stroke="#007127" stroke-width="30" stroke-linecap="round" stroke-linejoin="round"/>
<path d="M772.744 391L745.744 354.7C737.744 356.3 729.944 357.1 722.344 357.1C702.544 357.1 684.344 352.5 667.744 343.3C651.344 334.1 638.244 321.3 628.444 304.9C618.844 288.3 614.044 269.7 614.044 249.1C614.044 228.5 618.844 210 628.444 193.6C638.244 177.2 651.344 164.4 667.744 155.2C684.344 146 702.544 141.4 722.344 141.4C742.144 141.4 760.244 146 776.644 155.2C793.244 164.4 806.244 177.2 815.644 193.6C825.244 210 830.044 228.5 830.044 249.1C830.044 267.1 826.344 283.6 818.944 298.6C811.744 313.4 801.644 325.7 788.644 335.5L834.844 391H772.744ZM666.544 249.1C666.544 267.7 671.544 282.6 681.544 293.8C691.744 304.8 705.344 310.3 722.344 310.3C739.144 310.3 752.544 304.7 762.544 293.5C772.744 282.3 777.844 267.5 777.844 249.1C777.844 230.5 772.744 215.7 762.544 204.7C752.544 193.5 739.144 187.9 722.344 187.9C705.344 187.9 691.744 193.4 681.544 204.4C671.544 215.4 666.544 230.3 666.544 249.1ZM1024.47 187.6V355H973.17V332.2C967.97 339.6 960.87 345.6 951.87 350.2C943.07 354.6 933.27 356.8 922.47 356.8C909.67 356.8 898.37 354 888.57 348.4C878.77 342.6 871.17 334.3 865.77 323.5C860.37 312.7 857.67 300 857.67 285.4V187.6H908.67V278.5C908.67 289.7 911.57 298.4 917.37 304.6C923.17 310.8 930.97 313.9 940.77 313.9C950.77 313.9 958.67 310.8 964.47 304.6C970.27 298.4 973.17 289.7 973.17 278.5V187.6H1024.47ZM1219.12 268.6C1219.12 273.4 1218.82 278.4 1218.22 283.6H1102.12C1102.92 294 1106.22 302 1112.02 307.6C1118.02 313 1125.32 315.7 1133.92 315.7C1146.72 315.7 1155.62 310.3 1160.62 299.5H1215.22C1212.42 310.5 1207.32 320.4 1199.92 329.2C1192.72 338 1183.62 344.9 1172.62 349.9C1161.62 354.9 1149.32 357.4 1135.72 357.4C1119.32 357.4 1104.72 353.9 1091.92 346.9C1079.12 339.9 1069.12 329.9 1061.92 316.9C1054.72 303.9 1051.12 288.7 1051.12 271.3C1051.12 253.9 1054.62 238.7 1061.62 225.7C1068.82 212.7 1078.82 202.7 1091.62 195.7C1104.42 188.7 1119.12 185.2 1135.72 185.2C1151.92 185.2 1166.32 188.6 1178.92 195.4C1191.52 202.2 1201.32 211.9 1208.32 224.5C1215.52 237.1 1219.12 251.8 1219.12 268.6ZM1166.62 255.1C1166.62 246.3 1163.62 239.3 1157.62 234.1C1151.62 228.9 1144.12 226.3 1135.12 226.3C1126.52 226.3 1119.22 228.8 1113.22 233.8C1107.42 238.8 1103.82 245.9 1102.42 255.1H1166.62ZM1297.48 215.5C1303.48 206.3 1310.98 199.1 1319.98 193.9C1328.98 188.5 1338.98 185.8 1349.98 185.8V240.1H1335.88C1323.08 240.1 1313.48 242.9 1307.08 248.5C1300.68 253.9 1297.48 263.5 1297.48 277.3V355H1246.18V187.6H1297.48V215.5ZM1545.5 187.6L1440.5 434.5H1385.3L1423.7 349.3L1355.6 187.6H1412.9L1451.6 292.3L1490 187.6H1545.5ZM1615.35 315.4H1682.55V355H1564.05V144.4H1615.35V315.4ZM1864.82 268.6C1864.82 273.4 1864.52 278.4 1863.92 283.6H1747.82C1748.62 294 1751.92 302 1757.72 307.6C1763.72 313 1771.02 315.7 1779.62 315.7C1792.42 315.7 1801.32 310.3 1806.32 299.5H1860.92C1858.12 310.5 1853.02 320.4 1845.62 329.2C1838.42 338 1829.32 344.9 1818.32 349.9C1807.32 354.9 1795.02 357.4 1781.42 357.4C1765.02 357.4 1750.42 353.9 1737.62 346.9C1724.82 339.9 1714.82 329.9 1707.62 316.9C1700.42 303.9 1696.82 288.7 1696.82 271.3C1696.82 253.9 1700.32 238.7 1707.32 225.7C1714.52 212.7 1724.52 202.7 1737.32 195.7C1750.12 188.7 1764.82 185.2 1781.42 185.2C1797.62 185.2 1812.02 188.6 1824.62 195.4C1837.22 202.2 1847.02 211.9 1854.02 224.5C1861.22 237.1 1864.82 251.8 1864.82 268.6ZM1812.32 255.1C1812.32 246.3 1809.32 239.3 1803.32 234.1C1797.32 228.9 1789.82 226.3 1780.82 226.3C1772.22 226.3 1764.92 228.8 1758.92 233.8C1753.12 238.8 1749.52 245.9 1748.12 255.1H1812.32ZM1993.88 185.8C2013.48 185.8 2029.08 192.2 2040.68 205C2052.48 217.6 2058.38 235 2058.38 257.2V355H2007.38V264.1C2007.38 252.9 2004.48 244.2 1998.68 238C1992.88 231.8 1985.08 228.7 1975.28 228.7C1965.48 228.7 1957.68 231.8 1951.88 238C1946.08 244.2 1943.18 252.9 1943.18 264.1V355H1891.88V187.6H1943.18V209.8C1948.38 202.4 1955.38 196.6 1964.18 192.4C1972.98 188 1982.88 185.8 1993.88 185.8ZM2162.13 357.4C2147.53 357.4 2134.53 354.9 2123.13 349.9C2111.73 344.9 2102.73 338.1 2096.13 329.5C2089.53 320.7 2085.83 310.9 2085.03 300.1H2135.73C2136.33 305.9 2139.03 310.6 2143.83 314.2C2148.63 317.8 2154.53 319.6 2161.53 319.6C2167.93 319.6 2172.83 318.4 2176.23 316C2179.83 313.4 2181.63 310.1 2181.63 306.1C2181.63 301.3 2179.13 297.8 2174.13 295.6C2169.13 293.2 2161.03 290.6 2149.83 287.8C2137.83 285 2127.83 282.1 2119.83 279.1C2111.83 275.9 2104.93 271 2099.13 264.4C2093.33 257.6 2090.43 248.5 2090.43 237.1C2090.43 227.5 2093.03 218.8 2098.23 211C2103.63 203 2111.43 196.7 2121.63 192.1C2132.03 187.5 2144.33 185.2 2158.53 185.2C2179.53 185.2 2196.03 190.4 2208.03 200.8C2220.23 211.2 2227.23 225 2229.03 242.2H2181.63C2180.83 236.4 2178.23 231.8 2173.83 228.4C2169.63 225 2164.03 223.3 2157.03 223.3C2151.03 223.3 2146.43 224.5 2143.23 226.9C2140.03 229.1 2138.43 232.2 2138.43 236.2C2138.43 241 2140.93 244.6 2145.93 247C2151.13 249.4 2159.13 251.8 2169.93 254.2C2182.33 257.4 2192.43 260.6 2200.23 263.8C2208.03 266.8 2214.83 271.8 2220.63 278.8C2226.63 285.6 2229.73 294.8 2229.93 306.4C2229.93 316.2 2227.13 325 2221.53 332.8C2216.13 340.4 2208.23 346.4 2197.83 350.8C2187.63 355.2 2175.73 357.4 2162.13 357.4ZM2455.99 317.8H2377.39L2364.79 355H2311.09L2387.29 144.4H2446.69L2522.89 355H2468.59L2455.99 317.8ZM2442.79 278.2L2416.69 201.1L2390.89 278.2H2442.79ZM2597.38 144.4V355H2546.08V144.4H2597.38Z" fill="black"/>
<defs>
<linearGradient id="paint0_linear_3_15" x1="112.113" y1="62.5" x2="112.113" y2="145.833" gradientUnits="userSpaceOnUse">
<stop offset="0.0139777" stop-color="#FF6C6E"/>
<stop offset="0.263978" stop-color="#D8FF6C"/>
<stop offset="1" stop-color="#005E21"/>
</linearGradient>
<linearGradient id="paint1_linear_3_15" x1="112.113" y1="354.167" x2="112.113" y2="437.5" gradientUnits="userSpaceOnUse">
<stop offset="0.0139777" stop-color="#FF6C6E"/>
<stop offset="0.263978" stop-color="#D8FF6C"/>
<stop offset="1" stop-color="#005E21"/>
</linearGradient>
<linearGradient id="paint2_linear_3_15" x1="426.031" y1="354.167" x2="426.031" y2="437.5" gradientUnits="userSpaceOnUse">
<stop offset="0.0139777" stop-color="#FF6C6E"/>
<stop offset="0.263978" stop-color="#D8FF6C"/>
<stop offset="1" stop-color="#005E21"/>
</linearGradient>
<linearGradient id="paint3_linear_3_15" x1="426.031" y1="62.5" x2="426.031" y2="145.833" gradientUnits="userSpaceOnUse">
<stop offset="0.0139777" stop-color="#FF6C6E"/>
<stop offset="0.263978" stop-color="#D8FF6C"/>
<stop offset="1" stop-color="#005E21"/>
</linearGradient>
</defs>
</svg>
